<?xml version="1.0" encoding="UTF-8"?>
<svg xmlns="http://www.w3.org/2000/svg" width="1024" height="1024" viewBox="0 0 1024 1024">


<defs>
  <linearGradient id="bgGrad" x1="200" y1="140" x2="860" y2="900" gradientUnits="userSpaceOnUse">
    <stop offset="0" stop-color="#5A49E6"/>
    <stop offset="0.55" stop-color="#3A2BB5"/>
    <stop offset="1" stop-color="#1B1A66"/>
  </linearGradient>

  <radialGradient id="bgBloom" cx="760" cy="250" r="420" gradientUnits="userSpaceOnUse">
    <stop offset="0" stop-color="#BBA9FF" stop-opacity="0.55"/>
    <stop offset="0.35" stop-color="#BBA9FF" stop-opacity="0.18"/>
    <stop offset="1" stop-color="#BBA9FF" stop-opacity="0"/>
  </radialGradient>

  <filter id="softShadow" x="-20%" y="-20%" width="140%" height="140%">
    <feGaussianBlur in="SourceAlpha" stdDeviation="10" result="blur"/>
    <feOffset dx="0" dy="12" result="off"/>
    <feColorMatrix in="off" type="matrix"
      values="0 0 0 0 0
              0 0 0 0 0
              0 0 0 0 0
              0 0 0 0.25 0" result="shadow"/>
    <feMerge>
      <feMergeNode in="shadow"/>
      <feMergeNode in="SourceGraphic"/>
    </feMerge>
  </filter>

  <filter id="innerGlow" x="-20%" y="-20%" width="140%" height="140%">
    <feGaussianBlur stdDeviation="8" result="b"/>
    <feColorMatrix in="b" type="matrix"
      values="0 0 0 0 1
              0 0 0 0 1
              0 0 0 0 1
              0 0 0 0.18 0" result="g"/>
    <feComposite in="g" in2="SourceGraphic" operator="in" result="c"/>
    <feMerge>
      <feMergeNode in="SourceGraphic"/>
      <feMergeNode in="c"/>
    </feMerge>
  </filter>
</defs>


<defs>
  <linearGradient id="glassFill" x1="280" y1="260" x2="740" y2="820" gradientUnits="userSpaceOnUse">
    <stop offset="0" stop-color="#FFFFFF" stop-opacity="0.62"/>
    <stop offset="0.55" stop-color="#EDEBFF" stop-opacity="0.34"/>
    <stop offset="1" stop-color="#CFCBFF" stop-opacity="0.22"/>
  </linearGradient>

  <linearGradient id="glassFill2" x1="250" y1="320" x2="720" y2="860" gradientUnits="userSpaceOnUse">
    <stop offset="0" stop-color="#FFFFFF" stop-opacity="0.55"/>
    <stop offset="0.6" stop-color="#EFEFFF" stop-opacity="0.28"/>
    <stop offset="1" stop-color="#D9D5FF" stop-opacity="0.18"/>
  </linearGradient>

  <linearGradient id="edgeStroke" x1="300" y1="240" x2="700" y2="860" gradientUnits="userSpaceOnUse">
    <stop offset="0" stop-color="#FFFFFF" stop-opacity="0.80"/>
    <stop offset="1" stop-color="#FFFFFF" stop-opacity="0.35"/>
  </linearGradient>

  <filter id="phoneShadow" x="-30%" y="-30%" width="160%" height="160%">
    <feGaussianBlur in="SourceAlpha" stdDeviation="9" result="blur"/>
    <feOffset dx="0" dy="10" result="off"/>
    <feColorMatrix in="off" type="matrix"
      values="0 0 0 0 0
              0 0 0 0 0
              0 0 0 0 0
              0 0 0 0.22 0" result="shadow"/>
    <feMerge>
      <feMergeNode in="shadow"/>
      <feMergeNode in="SourceGraphic"/>
    </feMerge>
  </filter>

  <filter id="softInner" x="-20%" y="-20%" width="140%" height="140%">
    <feGaussianBlur stdDeviation="5" result="b"/>
    <feComposite in="b" in2="SourceGraphic" operator="atop" result="c"/>
    <feMerge>
      <feMergeNode in="SourceGraphic"/>
      <feMergeNode in="c"/>
    </feMerge>
  </filter>
</defs>


<defs>
  <radialGradient id="flare" cx="0" cy="0" r="1" gradientUnits="userSpaceOnUse"
    gradientTransform="translate(745 300) rotate(0) scale(160)">
    <stop offset="0" stop-color="#FFFFFF" stop-opacity="0.95"/>
    <stop offset="0.25" stop-color="#FFFFFF" stop-opacity="0.35"/>
    <stop offset="1" stop-color="#FFFFFF" stop-opacity="0"/>
  </radialGradient>

  <filter id="flareBlur" x="-50%" y="-50%" width="200%" height="200%">
    <feGaussianBlur stdDeviation="4"/>
  </filter>
</defs>


<defs>
  <linearGradient id="rim" x1="120" y1="120" x2="420" y2="420" gradientUnits="userSpaceOnUse">
    <stop offset="0" stop-color="#FFFFFF" stop-opacity="0.35"/>
    <stop offset="1" stop-color="#FFFFFF" stop-opacity="0"/>
  </linearGradient>
</defs>


<!-- background -->
<g>
  <g filter="url(#softShadow)">
    <rect x="80" y="80" width="864" height="864" rx="210" ry="210" fill="url(#bgGrad)"/>
  </g>
  <rect x="80" y="80" width="864" height="864" rx="210" ry="210" fill="url(#bgBloom)"/>
  <rect x="80" y="80" width="864" height="864" rx="210" ry="210" fill="none" stroke="#FFFFFF" stroke-opacity="0.10" stroke-width="6" filter="url(#innerGlow)"/>
</g>

<!-- phones -->
<g>
  <g filter="url(#phoneShadow)" transform="translate(20,-10) rotate(-10 600 420)">
    <rect x="460" y="210" width="310" height="520" rx="86" ry="86" fill="url(#glassFill2)"/>
    <rect x="460" y="210" width="310" height="520" rx="86" ry="86" fill="none" stroke="url(#edgeStroke)" stroke-width="14" stroke-opacity="0.75"/>
    <rect x="565" y="252" width="110" height="18" rx="9" ry="9" fill="#FFFFFF" fill-opacity="0.30"/>
    <path d="M470 300 L740 220 L770 290 L500 370 Z" fill="#FFFFFF" fill-opacity="0.12"/>
  </g>

  <g filter="url(#phoneShadow)" transform="rotate(8 420 520)">
    <rect x="270" y="290" width="330" height="560" rx="92" ry="92" fill="url(#glassFill)"/>
    <rect x="270" y="290" width="330" height="560" rx="92" ry="92" fill="none" stroke="url(#edgeStroke)" stroke-width="16" stroke-opacity="0.80"/>
    <rect x="300" y="335" width="270" height="470" rx="74" ry="74" fill="#FFFFFF" fill-opacity="0.06" filter="url(#softInner)"/>
    <path d="M280 430 L590 300 L610 360 L300 490 Z" fill="#FFFFFF" fill-opacity="0.13"/>
  </g>
</g>

<!-- flare -->
<circle cx="745" cy="300" r="160" fill="url(#flare)" filter="url(#flareBlur)"/>

<!-- rim gloss -->
<path d="M140 260
         C160 170, 220 120, 320 108
         L700 80
         C835 70, 915 145, 944 270
         L944 340
         C910 210, 830 155, 720 160
         L320 186
         C235 193, 175 220, 140 260 Z"
      fill="url(#rim)"/>

</svg>
